%TF.GenerationSoftware,KiCad,Pcbnew,7.0.10*%
%TF.CreationDate,2024-03-31T17:00:33-07:00*%
%TF.ProjectId,Esp32,45737033-322e-46b6-9963-61645f706362,rev?*%
%TF.SameCoordinates,Original*%
%TF.FileFunction,Copper,L1,Top*%
%TF.FilePolarity,Positive*%
%FSLAX46Y46*%
G04 Gerber Fmt 4.6, Leading zero omitted, Abs format (unit mm)*
G04 Created by KiCad (PCBNEW 7.0.10) date 2024-03-31 17:00:33*
%MOMM*%
%LPD*%
G01*
G04 APERTURE LIST*
%TA.AperFunction,ComponentPad*%
%ADD10C,1.400000*%
%TD*%
%TA.AperFunction,ComponentPad*%
%ADD11O,1.400000X1.400000*%
%TD*%
%TA.AperFunction,ComponentPad*%
%ADD12R,2.000000X1.200000*%
%TD*%
%TA.AperFunction,ComponentPad*%
%ADD13O,2.000000X1.200000*%
%TD*%
%TA.AperFunction,ComponentPad*%
%ADD14R,1.700000X1.700000*%
%TD*%
%TA.AperFunction,ComponentPad*%
%ADD15O,1.700000X1.700000*%
%TD*%
%TA.AperFunction,ComponentPad*%
%ADD16R,1.800000X1.800000*%
%TD*%
%TA.AperFunction,ComponentPad*%
%ADD17C,1.800000*%
%TD*%
%TA.AperFunction,Conductor*%
%ADD18C,0.250000*%
%TD*%
G04 APERTURE END LIST*
D10*
%TO.P,R1,1*%
%TO.N,Red*%
X119380000Y-66040000D03*
D11*
%TO.P,R1,2*%
%TO.N,Net-(D1-RA)*%
X119380000Y-73660000D03*
%TD*%
D10*
%TO.P,R3,1*%
%TO.N,Blue*%
X124460000Y-69850000D03*
D11*
%TO.P,R3,2*%
%TO.N,Net-(D1-BA)*%
X124460000Y-77470000D03*
%TD*%
D10*
%TO.P,R4,1*%
%TO.N,Net-(SW1-K)*%
X116840000Y-66040000D03*
D11*
%TO.P,R4,2*%
%TO.N,GND*%
X116840000Y-73660000D03*
%TD*%
D12*
%TO.P,U1,1,3V3*%
%TO.N,+3.3V*%
X131717000Y-57848120D03*
D13*
%TO.P,U1,2,3V3*%
X131717000Y-60388120D03*
%TO.P,U1,3,CHIP_PU*%
%TO.N,unconnected-(U1-CHIP_PU-Pad3)*%
X131717000Y-62928120D03*
%TO.P,U1,4,GPIO4/ADC1_CH3*%
%TO.N,Red*%
X131717000Y-65468120D03*
%TO.P,U1,5,GPIO5/ADC1_CH4*%
%TO.N,Green*%
X131717000Y-68008120D03*
%TO.P,U1,6,GPIO6/ADC1_CH5*%
%TO.N,Blue*%
X131717000Y-70548120D03*
%TO.P,U1,7,GPIO7/ADC1_CH6*%
%TO.N,unconnected-(U1-GPIO7{slash}ADC1_CH6-Pad7)*%
X131717000Y-73088120D03*
%TO.P,U1,8,GPIO15/ADC2_CH4/32K_P*%
%TO.N,unconnected-(U1-GPIO15{slash}ADC2_CH4{slash}32K_P-Pad8)*%
X131717000Y-75628120D03*
%TO.P,U1,9,GPIO16/ADC2_CH5/32K_N*%
%TO.N,unconnected-(U1-GPIO16{slash}ADC2_CH5{slash}32K_N-Pad9)*%
X131717000Y-78168120D03*
%TO.P,U1,10,GPIO17/ADC2_CH6*%
%TO.N,unconnected-(U1-GPIO17{slash}ADC2_CH6-Pad10)*%
X131717000Y-80708120D03*
%TO.P,U1,11,GPIO18/ADC2_CH7*%
%TO.N,unconnected-(U1-GPIO18{slash}ADC2_CH7-Pad11)*%
X131717000Y-83248120D03*
%TO.P,U1,12,GPIO8/ADC1_CH7*%
%TO.N,/PushBtn*%
X131717000Y-85788120D03*
%TO.P,U1,13,GPIO3/ADC1_CH2*%
%TO.N,unconnected-(U1-GPIO3{slash}ADC1_CH2-Pad13)*%
X131717000Y-88328120D03*
%TO.P,U1,14,GPIO46*%
%TO.N,unconnected-(U1-GPIO46-Pad14)*%
X131717000Y-90868120D03*
%TO.P,U1,15,GPIO9/ADC1_CH8*%
%TO.N,unconnected-(U1-GPIO9{slash}ADC1_CH8-Pad15)*%
X131717000Y-93408120D03*
%TO.P,U1,16,GPIO10/ADC1_CH9*%
%TO.N,/NSS*%
X131717000Y-95948120D03*
%TO.P,U1,17,GPIO11/ADC2_CH0*%
%TO.N,/MOSI*%
X131717000Y-98488120D03*
%TO.P,U1,18,GPIO12/ADC2_CH1*%
%TO.N,/SCK*%
X131717000Y-101028120D03*
%TO.P,U1,19,GPIO13/ADC2_CH2*%
%TO.N,/MISO*%
X131717000Y-103568120D03*
%TO.P,U1,20,GPIO14/ADC2_CH3*%
%TO.N,/RESET*%
X131713320Y-106105400D03*
%TO.P,U1,21,5V*%
%TO.N,+5V*%
X131713320Y-108645400D03*
%TO.P,U1,22,GND*%
%TO.N,GND*%
X131713320Y-111185400D03*
%TO.P,U1,23,GND*%
X154577000Y-111188120D03*
%TO.P,U1,24,GND*%
X154577000Y-108648120D03*
%TO.P,U1,25,GPIO19/USB_D-*%
%TO.N,unconnected-(U1-GPIO19{slash}USB_D--Pad25)*%
X154577000Y-106108120D03*
%TO.P,U1,26,GPIO20/USB_D+*%
%TO.N,unconnected-(U1-GPIO20{slash}USB_D+-Pad26)*%
X154577000Y-103568120D03*
%TO.P,U1,27,GPIO21*%
%TO.N,unconnected-(U1-GPIO21-Pad27)*%
X154577000Y-101028120D03*
%TO.P,U1,28,GPIO47*%
%TO.N,unconnected-(U1-GPIO47-Pad28)*%
X154577000Y-98488120D03*
%TO.P,U1,29,GPIO48*%
%TO.N,unconnected-(U1-GPIO48-Pad29)*%
X154577000Y-95948120D03*
%TO.P,U1,30,GPIO45*%
%TO.N,unconnected-(U1-GPIO45-Pad30)*%
X154577000Y-93408120D03*
%TO.P,U1,31,GPIO0*%
%TO.N,unconnected-(U1-GPIO0-Pad31)*%
X154577000Y-90868120D03*
%TO.P,U1,32,GPIO35*%
%TO.N,unconnected-(U1-GPIO35-Pad32)*%
X154577000Y-88328120D03*
%TO.P,U1,33,GPIO36*%
%TO.N,unconnected-(U1-GPIO36-Pad33)*%
X154577000Y-85788120D03*
%TO.P,U1,34,GPIO37*%
%TO.N,unconnected-(U1-GPIO37-Pad34)*%
X154577000Y-83248120D03*
%TO.P,U1,35,GPIO38*%
%TO.N,unconnected-(U1-GPIO38-Pad35)*%
X154577000Y-80708120D03*
%TO.P,U1,36,GPIO39/MTCK*%
%TO.N,unconnected-(U1-GPIO39{slash}MTCK-Pad36)*%
X154577000Y-78168120D03*
%TO.P,U1,37,GPIO40/MTDO*%
%TO.N,unconnected-(U1-GPIO40{slash}MTDO-Pad37)*%
X154577000Y-75628120D03*
%TO.P,U1,38,GPIO41/MTDI*%
%TO.N,unconnected-(U1-GPIO41{slash}MTDI-Pad38)*%
X154577000Y-73088120D03*
%TO.P,U1,39,GPIO42/MTMS*%
%TO.N,unconnected-(U1-GPIO42{slash}MTMS-Pad39)*%
X154577000Y-70548120D03*
%TO.P,U1,40,GPIO2/ADC1_CH1*%
%TO.N,/SCL*%
X154577000Y-68008120D03*
%TO.P,U1,41,GPIO1/ADC1_CH0*%
%TO.N,/SDA*%
X154577000Y-65468120D03*
%TO.P,U1,42,GPIO44/U0RXD*%
%TO.N,unconnected-(U1-GPIO44{slash}U0RXD-Pad42)*%
X154577000Y-62928120D03*
%TO.P,U1,43,GPIO43/U0TXD*%
%TO.N,unconnected-(U1-GPIO43{slash}U0TXD-Pad43)*%
X154577000Y-60388120D03*
%TO.P,U1,44,GND*%
%TO.N,GND*%
X154577000Y-57848120D03*
%TD*%
D14*
%TO.P,CON2,1*%
%TO.N,GND*%
X101600000Y-111760000D03*
D15*
%TO.P,CON2,2*%
%TO.N,/DIO4*%
X101600000Y-109220000D03*
%TO.P,CON2,3*%
%TO.N,/DIO3*%
X101600000Y-106680000D03*
%TO.P,CON2,4*%
%TO.N,/DIO2*%
X101600000Y-104140000D03*
%TO.P,CON2,5*%
%TO.N,/DIO1*%
X101600000Y-101600000D03*
%TO.P,CON2,6*%
%TO.N,/DIO0*%
X101600000Y-99060000D03*
%TO.P,CON2,7*%
%TO.N,/RESET*%
X101600000Y-96520000D03*
%TO.P,CON2,8*%
%TO.N,GND*%
X101600000Y-93980000D03*
%TD*%
D10*
%TO.P,R2,1*%
%TO.N,Green*%
X121920000Y-68580000D03*
D11*
%TO.P,R2,2*%
%TO.N,Net-(D1-GA)*%
X121920000Y-76200000D03*
%TD*%
D14*
%TO.P,CON1,1*%
%TO.N,GND*%
X121920000Y-93980000D03*
D15*
%TO.P,CON1,2*%
%TO.N,+3.3V*%
X121920000Y-96520000D03*
%TO.P,CON1,3*%
%TO.N,/NSS*%
X121920000Y-99060000D03*
%TO.P,CON1,4*%
%TO.N,/MOSI*%
X121920000Y-101600000D03*
%TO.P,CON1,5*%
%TO.N,/MISO*%
X121920000Y-104140000D03*
%TO.P,CON1,6*%
%TO.N,/SCK*%
X121920000Y-106680000D03*
%TO.P,CON1,7*%
%TO.N,/DIO5*%
X121920000Y-109220000D03*
%TO.P,CON1,8*%
%TO.N,unconnected-(CON1-Pad8)*%
X121920000Y-111760000D03*
%TD*%
D14*
%TO.P,J1,1,Pin_1*%
%TO.N,GND*%
X159004000Y-73152000D03*
D15*
%TO.P,J1,2,Pin_2*%
%TO.N,+5V*%
X159004000Y-70612000D03*
%TO.P,J1,3,Pin_3*%
%TO.N,/SCL*%
X159004000Y-68072000D03*
%TO.P,J1,4,Pin_4*%
%TO.N,/SDA*%
X159004000Y-65532000D03*
%TD*%
D16*
%TO.P,SW1,1,1*%
%TO.N,+5V*%
X109140000Y-73660000D03*
D17*
%TO.P,SW1,2,2*%
%TO.N,unconnected-(SW1-Pad2)*%
X104140000Y-73660000D03*
%TO.P,SW1,3,K*%
%TO.N,Net-(SW1-K)*%
X109140000Y-67660000D03*
%TO.P,SW1,4,A*%
%TO.N,/PushBtn*%
X104140000Y-67660000D03*
%TD*%
D16*
%TO.P,D1,1,BA*%
%TO.N,Net-(D1-BA)*%
X116916200Y-85547200D03*
D17*
%TO.P,D1,2,GA*%
%TO.N,Net-(D1-GA)*%
X114757200Y-85547200D03*
%TO.P,D1,3,K*%
%TO.N,GND*%
X112598200Y-85547200D03*
%TO.P,D1,4,RA*%
%TO.N,Net-(D1-RA)*%
X110439200Y-85547200D03*
%TD*%
D18*
%TO.N,Net-(D1-BA)*%
X118922800Y-85547200D02*
X116916200Y-85547200D01*
X124460000Y-80010000D02*
X118922800Y-85547200D01*
X124460000Y-77470000D02*
X124460000Y-80010000D01*
%TO.N,Net-(D1-GA)*%
X114757200Y-83362800D02*
X114757200Y-85547200D01*
X121920000Y-76200000D02*
X114757200Y-83362800D01*
%TO.N,Net-(D1-RA)*%
X119380000Y-73660000D02*
X110439200Y-82600800D01*
X110439200Y-82600800D02*
X110439200Y-85547200D01*
%TO.N,Red*%
X119380000Y-66040000D02*
X131145120Y-66040000D01*
X131145120Y-66040000D02*
X131717000Y-65468120D01*
%TO.N,Green*%
X131145120Y-68580000D02*
X131717000Y-68008120D01*
X121920000Y-68580000D02*
X131145120Y-68580000D01*
%TO.N,Blue*%
X124460000Y-69850000D02*
X131018880Y-69850000D01*
X131018880Y-69850000D02*
X131717000Y-70548120D01*
%TO.N,+3.3V*%
X137160000Y-94996000D02*
X123444000Y-94996000D01*
X139192000Y-62484000D02*
X139192000Y-92964000D01*
X131717000Y-60388120D02*
X137096120Y-60388120D01*
X137096120Y-60388120D02*
X139192000Y-62484000D01*
X123444000Y-94996000D02*
X121920000Y-96520000D01*
X139192000Y-92964000D02*
X137160000Y-94996000D01*
%TO.N,/NSS*%
X125031880Y-95948120D02*
X131717000Y-95948120D01*
X121920000Y-99060000D02*
X125031880Y-95948120D01*
%TO.N,/MOSI*%
X121920000Y-101600000D02*
X125031880Y-98488120D01*
X125031880Y-98488120D02*
X131717000Y-98488120D01*
%TO.N,/MISO*%
X125730000Y-106680000D02*
X128841880Y-103568120D01*
X121920000Y-104140000D02*
X119380000Y-106680000D01*
X128841880Y-103568120D02*
X131717000Y-103568120D01*
X125730000Y-114300000D02*
X125730000Y-106680000D01*
X123190000Y-116840000D02*
X125730000Y-114300000D01*
X119380000Y-115570000D02*
X120650000Y-116840000D01*
X120650000Y-116840000D02*
X123190000Y-116840000D01*
X119380000Y-106680000D02*
X119380000Y-115570000D01*
%TO.N,/SCK*%
X121920000Y-106680000D02*
X127571880Y-101028120D01*
X127571880Y-101028120D02*
X131717000Y-101028120D01*
%TO.N,/RESET*%
X119380000Y-118364000D02*
X118364000Y-117348000D01*
X118364000Y-117348000D02*
X118364000Y-110744000D01*
X123444000Y-118364000D02*
X119380000Y-118364000D01*
X118364000Y-110744000D02*
X104140000Y-96520000D01*
X127000000Y-114808000D02*
X123444000Y-118364000D01*
X104140000Y-96520000D02*
X101600000Y-96520000D01*
X131713320Y-106105400D02*
X129098600Y-106105400D01*
X129098600Y-106105400D02*
X127000000Y-108204000D01*
X127000000Y-108204000D02*
X127000000Y-114808000D01*
%TO.N,+5V*%
X134553400Y-108645400D02*
X131713320Y-108645400D01*
X107188000Y-64516000D02*
X107188000Y-71708000D01*
X138684000Y-112776000D02*
X134553400Y-108645400D01*
X128524000Y-114808000D02*
X123952000Y-119380000D01*
X159004000Y-70612000D02*
X161036000Y-70612000D01*
X99060000Y-68580000D02*
X104140000Y-63500000D01*
X161544000Y-71120000D02*
X161544000Y-107696000D01*
X161036000Y-70612000D02*
X161544000Y-71120000D01*
X128524000Y-109728000D02*
X128524000Y-114808000D01*
X161544000Y-107696000D02*
X156464000Y-112776000D01*
X104140000Y-63500000D02*
X106172000Y-63500000D01*
X100076000Y-119380000D02*
X99060000Y-118364000D01*
X106172000Y-63500000D02*
X107188000Y-64516000D01*
X107188000Y-71708000D02*
X109140000Y-73660000D01*
X156464000Y-112776000D02*
X138684000Y-112776000D01*
X129606600Y-108645400D02*
X128524000Y-109728000D01*
X123952000Y-119380000D02*
X100076000Y-119380000D01*
X99060000Y-118364000D02*
X99060000Y-68580000D01*
X131713320Y-108645400D02*
X129606600Y-108645400D01*
%TO.N,Net-(SW1-K)*%
X116840000Y-66040000D02*
X110760000Y-66040000D01*
X110760000Y-66040000D02*
X109140000Y-67660000D01*
%TO.N,/PushBtn*%
X122491880Y-85788120D02*
X118110000Y-90170000D01*
X118110000Y-90170000D02*
X109220000Y-90170000D01*
X102915000Y-83865000D02*
X102915000Y-68885000D01*
X131717000Y-85788120D02*
X122491880Y-85788120D01*
X102915000Y-68885000D02*
X104140000Y-67660000D01*
X109220000Y-90170000D02*
X102915000Y-83865000D01*
%TO.N,/SCL*%
X158940120Y-68008120D02*
X159004000Y-68072000D01*
X154577000Y-68008120D02*
X158940120Y-68008120D01*
%TO.N,/SDA*%
X154577000Y-65468120D02*
X158940120Y-65468120D01*
X158940120Y-65468120D02*
X159004000Y-65532000D01*
%TD*%
M02*
