%TF.GenerationSoftware,KiCad,Pcbnew,7.0.10*%
%TF.CreationDate,2024-03-31T17:01:38-07:00*%
%TF.ProjectId,Esp32,45737033-322e-46b6-9963-61645f706362,rev?*%
%TF.SameCoordinates,Original*%
%TF.FileFunction,Plated,1,2,PTH,Drill*%
%TF.FilePolarity,Positive*%
%FSLAX46Y46*%
G04 Gerber Fmt 4.6, Leading zero omitted, Abs format (unit mm)*
G04 Created by KiCad (PCBNEW 7.0.10) date 2024-03-31 17:01:38*
%MOMM*%
%LPD*%
G01*
G04 APERTURE LIST*
%TA.AperFunction,ComponentDrill*%
%ADD10C,0.700000*%
%TD*%
%TA.AperFunction,ComponentDrill*%
%ADD11C,0.800000*%
%TD*%
%TA.AperFunction,ComponentDrill*%
%ADD12C,0.900000*%
%TD*%
%TA.AperFunction,ComponentDrill*%
%ADD13C,1.000000*%
%TD*%
G04 APERTURE END LIST*
D10*
%TO.C,R4*%
X116840000Y-66040000D03*
X116840000Y-73660000D03*
%TO.C,R1*%
X119380000Y-66040000D03*
X119380000Y-73660000D03*
%TO.C,R2*%
X121920000Y-68580000D03*
X121920000Y-76200000D03*
%TO.C,R3*%
X124460000Y-69850000D03*
X124460000Y-77470000D03*
D11*
%TO.C,U1*%
X131713320Y-106105400D03*
X131713320Y-108645400D03*
X131713320Y-111185400D03*
X131717000Y-57848120D03*
X131717000Y-60388120D03*
X131717000Y-62928120D03*
X131717000Y-65468120D03*
X131717000Y-68008120D03*
X131717000Y-70548120D03*
X131717000Y-73088120D03*
X131717000Y-75628120D03*
X131717000Y-78168120D03*
X131717000Y-80708120D03*
X131717000Y-83248120D03*
X131717000Y-85788120D03*
X131717000Y-88328120D03*
X131717000Y-90868120D03*
X131717000Y-93408120D03*
X131717000Y-95948120D03*
X131717000Y-98488120D03*
X131717000Y-101028120D03*
X131717000Y-103568120D03*
X154577000Y-57848120D03*
X154577000Y-60388120D03*
X154577000Y-62928120D03*
X154577000Y-65468120D03*
X154577000Y-68008120D03*
X154577000Y-70548120D03*
X154577000Y-73088120D03*
X154577000Y-75628120D03*
X154577000Y-78168120D03*
X154577000Y-80708120D03*
X154577000Y-83248120D03*
X154577000Y-85788120D03*
X154577000Y-88328120D03*
X154577000Y-90868120D03*
X154577000Y-93408120D03*
X154577000Y-95948120D03*
X154577000Y-98488120D03*
X154577000Y-101028120D03*
X154577000Y-103568120D03*
X154577000Y-106108120D03*
X154577000Y-108648120D03*
X154577000Y-111188120D03*
D12*
%TO.C,SW1*%
X104140000Y-67660000D03*
X104140000Y-73660000D03*
X109140000Y-67660000D03*
X109140000Y-73660000D03*
%TO.C,D1*%
X110439200Y-85547200D03*
X112598200Y-85547200D03*
X114757200Y-85547200D03*
X116916200Y-85547200D03*
D13*
%TO.C,CON2*%
X101600000Y-93980000D03*
X101600000Y-96520000D03*
X101600000Y-99060000D03*
X101600000Y-101600000D03*
X101600000Y-104140000D03*
X101600000Y-106680000D03*
X101600000Y-109220000D03*
X101600000Y-111760000D03*
%TO.C,CON1*%
X121920000Y-93980000D03*
X121920000Y-96520000D03*
X121920000Y-99060000D03*
X121920000Y-101600000D03*
X121920000Y-104140000D03*
X121920000Y-106680000D03*
X121920000Y-109220000D03*
X121920000Y-111760000D03*
%TO.C,J1*%
X159004000Y-65532000D03*
X159004000Y-68072000D03*
X159004000Y-70612000D03*
X159004000Y-73152000D03*
M02*
